<svg width="124" height="63" viewBox="0 0 124 63" fill="none" xmlns="http://www.w3.org/2000/svg">
<path d="M7.296 26.168C6.176 26.168 5.168 25.976 4.272 25.592C3.376 25.192 2.672 24.632 2.16 23.912C1.648 23.192 1.392 22.352 1.392 21.392H4.32C4.384 22.112 4.664 22.704 5.16 23.168C5.672 23.632 6.384 23.864 7.296 23.864C8.24 23.864 8.976 23.64 9.504 23.192C10.032 22.728 10.296 22.136 10.296 21.416C10.296 20.856 10.128 20.4 9.792 20.048C9.472 19.696 9.064 19.424 8.568 19.232C8.088 19.04 7.416 18.832 6.552 18.608C5.464 18.32 4.576 18.032 3.888 17.744C3.216 17.44 2.64 16.976 2.16 16.352C1.68 15.728 1.44 14.896 1.44 13.856C1.44 12.896 1.68 12.056 2.16 11.336C2.64 10.616 3.312 10.064 4.176 9.68C5.04 9.296 6.04 9.104 7.176 9.104C8.792 9.104 10.112 9.512 11.136 10.328C12.176 11.128 12.752 12.232 12.864 13.64H9.84C9.792 13.032 9.504 12.512 8.976 12.08C8.448 11.648 7.752 11.432 6.888 11.432C6.104 11.432 5.464 11.632 4.968 12.032C4.472 12.432 4.224 13.008 4.224 13.76C4.224 14.272 4.376 14.696 4.68 15.032C5 15.352 5.4 15.608 5.88 15.8C6.36 15.992 7.016 16.2 7.848 16.424C8.952 16.728 9.848 17.032 10.536 17.336C11.24 17.64 11.832 18.112 12.312 18.752C12.808 19.376 13.056 20.216 13.056 21.272C13.056 22.12 12.824 22.92 12.36 23.672C11.912 24.424 11.248 25.032 10.368 25.496C9.504 25.944 8.48 26.168 7.296 26.168ZM28.2604 12.776V26H25.5244V24.44C25.0924 24.984 24.5244 25.416 23.8204 25.736C23.1324 26.04 22.3964 26.192 21.6124 26.192C20.5724 26.192 19.6364 25.976 18.8044 25.544C17.9884 25.112 17.3404 24.472 16.8604 23.624C16.3964 22.776 16.1644 21.752 16.1644 20.552V12.776H18.8764V20.144C18.8764 21.328 19.1724 22.24 19.7644 22.88C20.3564 23.504 21.1644 23.816 22.1884 23.816C23.2124 23.816 24.0204 23.504 24.6124 22.88C25.2204 22.24 25.5244 21.328 25.5244 20.144V12.776H28.2604ZM47.8783 12.56C48.9183 12.56 49.8463 12.776 50.6623 13.208C51.4943 13.64 52.1423 14.28 52.6063 15.128C53.0863 15.976 53.3263 17 53.3263 18.2V26H50.6143V18.608C50.6143 17.424 50.3183 16.52 49.7263 15.896C49.1343 15.256 48.3263 14.936 47.3023 14.936C46.2783 14.936 45.4623 15.256 44.8543 15.896C44.2623 16.52 43.9663 17.424 43.9663 18.608V26H41.2543V18.608C41.2543 17.424 40.9583 16.52 40.3663 15.896C39.7743 15.256 38.9663 14.936 37.9423 14.936C36.9183 14.936 36.1023 15.256 35.4943 15.896C34.9023 16.52 34.6063 17.424 34.6063 18.608V26H31.8703V12.776H34.6063V14.288C35.0543 13.744 35.6223 13.32 36.3103 13.016C36.9983 12.712 37.7343 12.56 38.5183 12.56C39.5743 12.56 40.5183 12.784 41.3503 13.232C42.1823 13.68 42.8223 14.328 43.2703 15.176C43.6703 14.376 44.2943 13.744 45.1423 13.28C45.9903 12.8 46.9023 12.56 47.8783 12.56ZM68.9278 19.064C68.9278 19.56 68.8958 20.008 68.8318 20.408H58.7278C58.8078 21.464 59.1998 22.312 59.9038 22.952C60.6078 23.592 61.4718 23.912 62.4958 23.912C63.9678 23.912 65.0078 23.296 65.6158 22.064H68.5678C68.1678 23.28 67.4398 24.28 66.3838 25.064C65.3438 25.832 64.0478 26.216 62.4958 26.216C61.2318 26.216 60.0958 25.936 59.0878 25.376C58.0958 24.8 57.3118 24 56.7358 22.976C56.1758 21.936 55.8958 20.736 55.8958 19.376C55.8958 18.016 56.1678 16.824 56.7118 15.8C57.2718 14.76 58.0478 13.96 59.0398 13.4C60.0478 12.84 61.1998 12.56 62.4958 12.56C63.7438 12.56 64.8558 12.832 65.8318 13.376C66.8078 13.92 67.5678 14.688 68.1118 15.68C68.6558 16.656 68.9278 17.784 68.9278 19.064ZM66.0718 18.2C66.0558 17.192 65.6958 16.384 64.9918 15.776C64.2878 15.168 63.4158 14.864 62.3758 14.864C61.4318 14.864 60.6238 15.168 59.9518 15.776C59.2798 16.368 58.8798 17.176 58.7518 18.2H66.0718ZM78.2923 12.56C79.3323 12.56 80.2603 12.776 81.0763 13.208C81.9083 13.64 82.5563 14.28 83.0203 15.128C83.4843 15.976 83.7163 17 83.7163 18.2V26H81.0043V18.608C81.0043 17.424 80.7083 16.52 80.1163 15.896C79.5243 15.256 78.7163 14.936 77.6923 14.936C76.6683 14.936 75.8523 15.256 75.2443 15.896C74.6523 16.52 74.3563 17.424 74.3563 18.608V26H71.6203V12.776H74.3563V14.288C74.8043 13.744 75.3723 13.32 76.0603 13.016C76.7643 12.712 77.5083 12.56 78.2923 12.56ZM99.3263 19.064C99.3263 19.56 99.2943 20.008 99.2303 20.408H89.1263C89.2063 21.464 89.5983 22.312 90.3023 22.952C91.0063 23.592 91.8703 23.912 92.8943 23.912C94.3663 23.912 95.4063 23.296 96.0143 22.064H98.9662C98.5663 23.28 97.8383 24.28 96.7823 25.064C95.7423 25.832 94.4463 26.216 92.8943 26.216C91.6303 26.216 90.4943 25.936 89.4863 25.376C88.4943 24.8 87.7103 24 87.1343 22.976C86.5743 21.936 86.2943 20.736 86.2943 19.376C86.2943 18.016 86.5663 16.824 87.1103 15.8C87.6703 14.76 88.4463 13.96 89.4383 13.4C90.4463 12.84 91.5983 12.56 92.8943 12.56C94.1423 12.56 95.2543 12.832 96.2303 13.376C97.2063 13.92 97.9663 14.688 98.5103 15.68C99.0543 16.656 99.3263 17.784 99.3263 19.064ZM96.4703 18.2C96.4543 17.192 96.0943 16.384 95.3903 15.776C94.6863 15.168 93.8143 14.864 92.7743 14.864C91.8303 14.864 91.0223 15.168 90.3503 15.776C89.6783 16.368 89.2783 17.176 89.1503 18.2H96.4703ZM104.755 14.72C105.219 14.112 105.851 13.6 106.651 13.184C107.451 12.768 108.355 12.56 109.363 12.56C110.515 12.56 111.563 12.848 112.507 13.424C113.467 13.984 114.219 14.776 114.763 15.8C115.307 16.824 115.579 18 115.579 19.328C115.579 20.656 115.307 21.848 114.763 22.904C114.219 23.944 113.467 24.76 112.507 25.352C111.563 25.928 110.515 26.216 109.363 26.216C108.355 26.216 107.459 26.016 106.675 25.616C105.891 25.2 105.251 24.688 104.755 24.08V32.288H102.019V12.776H104.755V14.72ZM112.795 19.328C112.795 18.416 112.603 17.632 112.219 16.976C111.851 16.304 111.355 15.8 110.731 15.464C110.123 15.112 109.467 14.936 108.763 14.936C108.075 14.936 107.419 15.112 106.795 15.464C106.187 15.816 105.691 16.328 105.307 17C104.939 17.672 104.755 18.464 104.755 19.376C104.755 20.288 104.939 21.088 105.307 21.776C105.691 22.448 106.187 22.96 106.795 23.312C107.419 23.664 108.075 23.84 108.763 23.84C109.467 23.84 110.123 23.664 110.731 23.312C111.355 22.944 111.851 22.416 112.219 21.728C112.603 21.04 112.795 20.24 112.795 19.328Z" fill="#29A867"/>
<path d="M50.824 29.76V52H47.176V36.768L40.392 52H37.864L31.048 36.768V52H27.4V29.76H31.336L39.144 47.2L46.92 29.76H50.824ZM54.4028 43.104C54.4028 41.3333 54.7654 39.7653 55.4908 38.4C56.2374 37.0347 57.2401 35.9787 58.4988 35.232C59.7788 34.464 61.1868 34.08 62.7228 34.08C64.1094 34.08 65.3148 34.3573 66.3388 34.912C67.3841 35.4453 68.2161 36.1173 68.8348 36.928V34.368H72.5148V52H68.8348V49.376C68.2161 50.208 67.3734 50.9013 66.3068 51.456C65.2401 52.0107 64.0241 52.288 62.6588 52.288C61.1441 52.288 59.7574 51.904 58.4988 51.136C57.2401 50.3467 56.2374 49.2587 55.4908 47.872C54.7654 46.464 54.4028 44.8747 54.4028 43.104ZM68.8348 43.168C68.8348 41.952 68.5788 40.896 68.0668 40C67.5761 39.104 66.9254 38.4213 66.1148 37.952C65.3041 37.4827 64.4294 37.248 63.4908 37.248C62.5521 37.248 61.6774 37.4827 60.8668 37.952C60.0561 38.4 59.3948 39.072 58.8828 39.968C58.3921 40.8427 58.1468 41.888 58.1468 43.104C58.1468 44.32 58.3921 45.3867 58.8828 46.304C59.3948 47.2213 60.0561 47.9253 60.8668 48.416C61.6988 48.8853 62.5734 49.12 63.4908 49.12C64.4294 49.12 65.3041 48.8853 66.1148 48.416C66.9254 47.9467 67.5761 47.264 68.0668 46.368C68.5788 45.4507 68.8348 44.384 68.8348 43.168ZM80.9543 28.32V52H77.3063V28.32H80.9543ZM89.3918 28.32V52H85.7438V28.32H89.3918Z" fill="#29A867"/>
</svg>
