<svg width="126" height="66" viewBox="0 0 126 66" fill="none" xmlns="http://www.w3.org/2000/svg">
<path d="M92.6932 42.9098C92.6591 42.5765 92.3193 42.321 91.9143 42.3243H85.9947V40.4707C85.9947 37.4492 83.0303 35 79.374 35C75.7174 35 72.7533 37.4492 72.7533 40.4707V42.3243H66.8337C66.4305 42.3256 66.094 42.5785 66.0548 42.9098L64.0141 62.2955C63.9213 63.1943 64.2889 64.0843 65.0279 64.7488C65.7667 65.413 66.8087 65.7909 67.9007 65.7901H90.8549C91.9469 65.7909 92.989 65.413 93.7277 64.7488C94.4667 64.0843 94.8346 63.1943 94.7418 62.2955L92.6932 42.9098ZM74.3111 40.4707C74.3111 38.1602 76.5779 36.2872 79.374 36.2872C82.1701 36.2872 84.4369 38.1602 84.4369 40.4707V42.3243H74.3111V40.4707ZM92.5764 63.8787C92.1358 64.2794 91.51 64.5064 90.8549 64.5029H67.8928C67.2377 64.5032 66.6128 64.2761 66.1698 63.8774C65.7271 63.4784 65.5071 62.9442 65.564 62.4049L67.5423 43.6115H72.7533V47.6275C71.5007 47.9461 70.7185 48.9736 70.9135 50.0446C71.1082 51.1153 72.2218 51.9073 73.5322 51.9073C74.8427 51.9073 75.956 51.1153 76.151 50.0446C76.3457 48.9736 75.5635 47.9461 74.3111 47.6275V43.605H84.4369V47.6275C83.1842 47.9461 82.402 48.9736 82.597 50.0446C82.7917 51.1153 83.9053 51.9073 85.2158 51.9073C86.5262 51.9073 87.6395 51.1153 87.8345 50.0446C88.0292 48.9736 87.247 47.9461 85.9947 47.6275V43.605H91.1978L93.1761 62.3984C93.24 62.9399 93.0218 63.4782 92.5764 63.8787ZM73.4154 48.8248C73.493 48.8333 73.5715 48.8333 73.6491 48.8248C74.225 48.876 74.6522 49.2909 74.6212 49.7688C74.5898 50.247 74.1115 50.6216 73.5322 50.6216C72.9526 50.6216 72.4743 50.247 72.4433 49.7688C72.4123 49.2909 72.8391 48.876 73.4154 48.8248ZM85.0989 48.8248C85.1765 48.8333 85.255 48.8333 85.3326 48.8248C85.9086 48.876 86.3357 49.2909 86.3047 49.7688C86.2734 50.247 85.7951 50.6216 85.2158 50.6216C84.6362 50.6216 84.1579 50.247 84.1268 49.7688C84.0958 49.2909 84.5227 48.876 85.0989 48.8248Z" fill="black"/>
<path d="M10.112 35.224C8.46933 35.224 6.99733 34.9573 5.696 34.424C4.39467 33.8907 3.34933 33.1013 2.56 32.056C1.792 31.0107 1.38667 29.752 1.344 28.28H7.168C7.25333 29.112 7.54133 29.752 8.032 30.2C8.52267 30.6267 9.16267 30.84 9.952 30.84C10.7627 30.84 11.4027 30.6587 11.872 30.296C12.3413 29.912 12.576 29.3893 12.576 28.728C12.576 28.1733 12.384 27.7147 12 27.352C11.6373 26.9893 11.1787 26.6907 10.624 26.456C10.0907 26.2213 9.32267 25.9547 8.32 25.656C6.86933 25.208 5.68533 24.76 4.768 24.312C3.85067 23.864 3.06133 23.2027 2.4 22.328C1.73867 21.4533 1.408 20.312 1.408 18.904C1.408 16.8133 2.16533 15.1813 3.68 14.008C5.19467 12.8133 7.168 12.216 9.6 12.216C12.0747 12.216 14.0693 12.8133 15.584 14.008C17.0987 15.1813 17.9093 16.824 18.016 18.936H12.096C12.0533 18.2107 11.7867 17.6453 11.296 17.24C10.8053 16.8133 10.176 16.6 9.408 16.6C8.74667 16.6 8.21333 16.7813 7.808 17.144C7.40267 17.4853 7.2 17.9867 7.2 18.648C7.2 19.3733 7.54133 19.9387 8.224 20.344C8.90667 20.7493 9.97333 21.1867 11.424 21.656C12.8747 22.1467 14.048 22.616 14.944 23.064C15.8613 23.512 16.6507 24.1627 17.312 25.016C17.9733 25.8693 18.304 26.968 18.304 28.312C18.304 29.592 17.9733 30.7547 17.312 31.8C16.672 32.8453 15.7333 33.6773 14.496 34.296C13.2587 34.9147 11.7973 35.224 10.112 35.224Z" fill="#29A867"/>
<path d="M30.06 23.08V34H28.66V32.08C28.34 32.76 27.8467 33.28 27.18 33.64C26.5133 34 25.7667 34.18 24.94 34.18C23.6333 34.18 22.5667 33.78 21.74 32.98C20.9133 32.1667 20.5 30.9933 20.5 29.46V23.08H21.88V29.3C21.88 30.4867 22.1733 31.3933 22.76 32.02C23.36 32.6467 24.1733 32.96 25.2 32.96C26.2533 32.96 27.0933 32.6267 27.72 31.96C28.3467 31.2933 28.66 30.3133 28.66 29.02V23.08H30.06ZM46.2563 22.88C47.5363 22.88 48.5763 23.2867 49.3763 24.1C50.1896 24.9 50.5963 26.0667 50.5963 27.6V34H49.2163V27.76C49.2163 26.5733 48.9296 25.6667 48.3563 25.04C47.7829 24.4133 47.0029 24.1 46.0163 24.1C44.9896 24.1 44.1696 24.44 43.5563 25.12C42.9429 25.8 42.6363 26.7867 42.6363 28.08V34H41.2563V27.76C41.2563 26.5733 40.9696 25.6667 40.3963 25.04C39.8229 24.4133 39.0363 24.1 38.0363 24.1C37.0096 24.1 36.1896 24.44 35.5763 25.12C34.9629 25.8 34.6563 26.7867 34.6563 28.08V34H33.2563V23.08H34.6563V24.96C35.0029 24.28 35.4963 23.7667 36.1363 23.42C36.7763 23.06 37.4896 22.88 38.2763 22.88C39.2229 22.88 40.0496 23.1067 40.7563 23.56C41.4763 24.0133 41.9963 24.68 42.3163 25.56C42.6096 24.6933 43.1096 24.0333 43.8163 23.58C44.5363 23.1133 45.3496 22.88 46.2563 22.88ZM63.5855 27.98C63.5855 28.46 63.5721 28.8267 63.5455 29.08H54.4855C54.5255 29.9067 54.7255 30.6133 55.0855 31.2C55.4455 31.7867 55.9188 32.2333 56.5055 32.54C57.0921 32.8333 57.7321 32.98 58.4255 32.98C59.3321 32.98 60.0921 32.76 60.7055 32.32C61.3321 31.88 61.7455 31.2867 61.9455 30.54H63.4255C63.1588 31.6067 62.5855 32.48 61.7055 33.16C60.8388 33.8267 59.7455 34.16 58.4255 34.16C57.3988 34.16 56.4788 33.9333 55.6655 33.48C54.8521 33.0133 54.2121 32.36 53.7455 31.52C53.2921 30.6667 53.0655 29.6733 53.0655 28.54C53.0655 27.4067 53.2921 26.4133 53.7455 25.56C54.1988 24.7067 54.8321 24.0533 55.6455 23.6C56.4588 23.1467 57.3855 22.92 58.4255 22.92C59.4655 22.92 60.3721 23.1467 61.1455 23.6C61.9321 24.0533 62.5321 24.6667 62.9455 25.44C63.3721 26.2 63.5855 27.0467 63.5855 27.98ZM62.1655 27.94C62.1788 27.1267 62.0121 26.4333 61.6655 25.86C61.3321 25.2867 60.8721 24.8533 60.2855 24.56C59.6988 24.2667 59.0588 24.12 58.3655 24.12C57.3255 24.12 56.4388 24.4533 55.7055 25.12C54.9721 25.7867 54.5655 26.7267 54.4855 27.94H62.1655ZM71.2669 22.88C72.5735 22.88 73.6402 23.2867 74.4669 24.1C75.2935 24.9 75.7069 26.0667 75.7069 27.6V34H74.3269V27.76C74.3269 26.5733 74.0269 25.6667 73.4269 25.04C72.8402 24.4133 72.0335 24.1 71.0069 24.1C69.9535 24.1 69.1135 24.4333 68.4869 25.1C67.8602 25.7667 67.5469 26.7467 67.5469 28.04V34H66.1469V23.08H67.5469V24.94C67.8935 24.2733 68.3935 23.7667 69.0469 23.42C69.7002 23.06 70.4402 22.88 71.2669 22.88ZM88.6831 27.98C88.6831 28.46 88.6698 28.8267 88.6431 29.08H79.5831C79.6231 29.9067 79.8231 30.6133 80.1831 31.2C80.5431 31.7867 81.0165 32.2333 81.6031 32.54C82.1898 32.8333 82.8298 32.98 83.5231 32.98C84.4298 32.98 85.1898 32.76 85.8031 32.32C86.4298 31.88 86.8431 31.2867 87.0431 30.54H88.5231C88.2565 31.6067 87.6831 32.48 86.8031 33.16C85.9365 33.8267 84.8431 34.16 83.5231 34.16C82.4965 34.16 81.5765 33.9333 80.7631 33.48C79.9498 33.0133 79.3098 32.36 78.8431 31.52C78.3898 30.6667 78.1631 29.6733 78.1631 28.54C78.1631 27.4067 78.3898 26.4133 78.8431 25.56C79.2965 24.7067 79.9298 24.0533 80.7431 23.6C81.5565 23.1467 82.4831 22.92 83.5231 22.92C84.5631 22.92 85.4698 23.1467 86.2431 23.6C87.0298 24.0533 87.6298 24.6667 88.0431 25.44C88.4698 26.2 88.6831 27.0467 88.6831 27.98ZM87.2631 27.94C87.2765 27.1267 87.1098 26.4333 86.7631 25.86C86.4298 25.2867 85.9698 24.8533 85.3831 24.56C84.7965 24.2667 84.1565 24.12 83.4631 24.12C82.4231 24.12 81.5365 24.4533 80.8031 25.12C80.0698 25.7867 79.6631 26.7267 79.5831 27.94H87.2631ZM92.6245 25.48C92.9712 24.7467 93.5179 24.14 94.2645 23.66C95.0245 23.1667 95.9245 22.92 96.9645 22.92C97.9512 22.92 98.8379 23.1533 99.6245 23.62C100.425 24.0733 101.045 24.7267 101.485 25.58C101.938 26.42 102.165 27.4 102.165 28.52C102.165 29.64 101.938 30.6267 101.485 31.48C101.045 32.3333 100.425 32.9933 99.6245 33.46C98.8379 33.9267 97.9512 34.16 96.9645 34.16C95.9379 34.16 95.0445 33.92 94.2845 33.44C93.5245 32.9467 92.9712 32.3333 92.6245 31.6V39.16H91.2445V23.08H92.6245V25.48ZM100.745 28.52C100.745 27.6133 100.565 26.8333 100.205 26.18C99.8579 25.5133 99.3779 25.0067 98.7645 24.66C98.1512 24.3133 97.4579 24.14 96.6845 24.14C95.9379 24.14 95.2512 24.32 94.6245 24.68C94.0112 25.04 93.5245 25.5533 93.1645 26.22C92.8045 26.8867 92.6245 27.66 92.6245 28.54C92.6245 29.42 92.8045 30.1933 93.1645 30.86C93.5245 31.5267 94.0112 32.04 94.6245 32.4C95.2512 32.76 95.9379 32.94 96.6845 32.94C97.4579 32.94 98.1512 32.7667 98.7645 32.42C99.3779 32.06 99.8579 31.5467 100.205 30.88C100.565 30.2 100.745 29.4133 100.745 28.52Z" fill="black"/>
<path d="M30.06 23.08V34H28.66V32.08C28.34 32.76 27.8467 33.28 27.18 33.64C26.5133 34 25.7667 34.18 24.94 34.18C23.6333 34.18 22.5667 33.78 21.74 32.98C20.9133 32.1667 20.5 30.9933 20.5 29.46V23.08H21.88V29.3C21.88 30.4867 22.1733 31.3933 22.76 32.02C23.36 32.6467 24.1733 32.96 25.2 32.96C26.2533 32.96 27.0933 32.6267 27.72 31.96C28.3467 31.2933 28.66 30.3133 28.66 29.02V23.08H30.06ZM46.2563 22.88C47.5363 22.88 48.5763 23.2867 49.3763 24.1C50.1896 24.9 50.5963 26.0667 50.5963 27.6V34H49.2163V27.76C49.2163 26.5733 48.9296 25.6667 48.3563 25.04C47.7829 24.4133 47.0029 24.1 46.0163 24.1C44.9896 24.1 44.1696 24.44 43.5563 25.12C42.9429 25.8 42.6363 26.7867 42.6363 28.08V34H41.2563V27.76C41.2563 26.5733 40.9696 25.6667 40.3963 25.04C39.8229 24.4133 39.0363 24.1 38.0363 24.1C37.0096 24.1 36.1896 24.44 35.5763 25.12C34.9629 25.8 34.6563 26.7867 34.6563 28.08V34H33.2563V23.08H34.6563V24.96C35.0029 24.28 35.4963 23.7667 36.1363 23.42C36.7763 23.06 37.4896 22.88 38.2763 22.88C39.2229 22.88 40.0496 23.1067 40.7563 23.56C41.4763 24.0133 41.9963 24.68 42.3163 25.56C42.6096 24.6933 43.1096 24.0333 43.8163 23.58C44.5363 23.1133 45.3496 22.88 46.2563 22.88ZM63.5855 27.98C63.5855 28.46 63.5721 28.8267 63.5455 29.08H54.4855C54.5255 29.9067 54.7255 30.6133 55.0855 31.2C55.4455 31.7867 55.9188 32.2333 56.5055 32.54C57.0921 32.8333 57.7321 32.98 58.4255 32.98C59.3321 32.98 60.0921 32.76 60.7055 32.32C61.3321 31.88 61.7455 31.2867 61.9455 30.54H63.4255C63.1588 31.6067 62.5855 32.48 61.7055 33.16C60.8388 33.8267 59.7455 34.16 58.4255 34.16C57.3988 34.16 56.4788 33.9333 55.6655 33.48C54.8521 33.0133 54.2121 32.36 53.7455 31.52C53.2921 30.6667 53.0655 29.6733 53.0655 28.54C53.0655 27.4067 53.2921 26.4133 53.7455 25.56C54.1988 24.7067 54.8321 24.0533 55.6455 23.6C56.4588 23.1467 57.3855 22.92 58.4255 22.92C59.4655 22.92 60.3721 23.1467 61.1455 23.6C61.9321 24.0533 62.5321 24.6667 62.9455 25.44C63.3721 26.2 63.5855 27.0467 63.5855 27.98ZM62.1655 27.94C62.1788 27.1267 62.0121 26.4333 61.6655 25.86C61.3321 25.2867 60.8721 24.8533 60.2855 24.56C59.6988 24.2667 59.0588 24.12 58.3655 24.12C57.3255 24.12 56.4388 24.4533 55.7055 25.12C54.9721 25.7867 54.5655 26.7267 54.4855 27.94H62.1655ZM71.2669 22.88C72.5735 22.88 73.6402 23.2867 74.4669 24.1C75.2935 24.9 75.7069 26.0667 75.7069 27.6V34H74.3269V27.76C74.3269 26.5733 74.0269 25.6667 73.4269 25.04C72.8402 24.4133 72.0335 24.1 71.0069 24.1C69.9535 24.1 69.1135 24.4333 68.4869 25.1C67.8602 25.7667 67.5469 26.7467 67.5469 28.04V34H66.1469V23.08H67.5469V24.94C67.8935 24.2733 68.3935 23.7667 69.0469 23.42C69.7002 23.06 70.4402 22.88 71.2669 22.88ZM88.6831 27.98C88.6831 28.46 88.6698 28.8267 88.6431 29.08H79.5831C79.6231 29.9067 79.8231 30.6133 80.1831 31.2C80.5431 31.7867 81.0165 32.2333 81.6031 32.54C82.1898 32.8333 82.8298 32.98 83.5231 32.98C84.4298 32.98 85.1898 32.76 85.8031 32.32C86.4298 31.88 86.8431 31.2867 87.0431 30.54H88.5231C88.2565 31.6067 87.6831 32.48 86.8031 33.16C85.9365 33.8267 84.8431 34.16 83.5231 34.16C82.4965 34.16 81.5765 33.9333 80.7631 33.48C79.9498 33.0133 79.3098 32.36 78.8431 31.52C78.3898 30.6667 78.1631 29.6733 78.1631 28.54C78.1631 27.4067 78.3898 26.4133 78.8431 25.56C79.2965 24.7067 79.9298 24.0533 80.7431 23.6C81.5565 23.1467 82.4831 22.92 83.5231 22.92C84.5631 22.92 85.4698 23.1467 86.2431 23.6C87.0298 24.0533 87.6298 24.6667 88.0431 25.44C88.4698 26.2 88.6831 27.0467 88.6831 27.98ZM87.2631 27.94C87.2765 27.1267 87.1098 26.4333 86.7631 25.86C86.4298 25.2867 85.9698 24.8533 85.3831 24.56C84.7965 24.2667 84.1565 24.12 83.4631 24.12C82.4231 24.12 81.5365 24.4533 80.8031 25.12C80.0698 25.7867 79.6631 26.7267 79.5831 27.94H87.2631ZM92.6245 25.48C92.9712 24.7467 93.5179 24.14 94.2645 23.66C95.0245 23.1667 95.9245 22.92 96.9645 22.92C97.9512 22.92 98.8379 23.1533 99.6245 23.62C100.425 24.0733 101.045 24.7267 101.485 25.58C101.938 26.42 102.165 27.4 102.165 28.52C102.165 29.64 101.938 30.6267 101.485 31.48C101.045 32.3333 100.425 32.9933 99.6245 33.46C98.8379 33.9267 97.9512 34.16 96.9645 34.16C95.9379 34.16 95.0445 33.92 94.2845 33.44C93.5245 32.9467 92.9712 32.3333 92.6245 31.6V39.16H91.2445V23.08H92.6245V25.48ZM100.745 28.52C100.745 27.6133 100.565 26.8333 100.205 26.18C99.8579 25.5133 99.3779 25.0067 98.7645 24.66C98.1512 24.3133 97.4579 24.14 96.6845 24.14C95.9379 24.14 95.2512 24.32 94.6245 24.68C94.0112 25.04 93.5245 25.5533 93.1645 26.22C92.8045 26.8867 92.6245 27.66 92.6245 28.54C92.6245 29.42 92.8045 30.1933 93.1645 30.86C93.5245 31.5267 94.0112 32.04 94.6245 32.4C95.2512 32.76 95.9379 32.94 96.6845 32.94C97.4579 32.94 98.1512 32.7667 98.7645 32.42C99.3779 32.06 99.8579 31.5467 100.205 30.88C100.565 30.2 100.745 29.4133 100.745 28.52Z" fill="black"/>
<path d="M39.96 50.52C39.96 49.4 40.18 48.42 40.62 47.58C41.0733 46.7267 41.6933 46.0733 42.48 45.62C43.28 45.1533 44.18 44.92 45.18 44.92C46.22 44.92 47.1133 45.16 47.86 45.64C48.62 46.12 49.1667 46.7333 49.5 47.48V45.08H50.9V56H49.5V53.58C49.1533 54.3267 48.6 54.9467 47.84 55.44C47.0933 55.92 46.2 56.16 45.16 56.16C44.1733 56.16 43.28 55.9267 42.48 55.46C41.6933 54.9933 41.0733 54.3333 40.62 53.48C40.18 52.6267 39.96 51.64 39.96 50.52ZM49.5 50.54C49.5 49.66 49.32 48.8867 48.96 48.22C48.6 47.5533 48.1067 47.04 47.48 46.68C46.8667 46.32 46.1867 46.14 45.44 46.14C44.6667 46.14 43.9733 46.3133 43.36 46.66C42.7467 47.0067 42.26 47.5133 41.9 48.18C41.5533 48.8333 41.38 49.6133 41.38 50.52C41.38 51.4133 41.5533 52.2 41.9 52.88C42.26 53.5467 42.7467 54.06 43.36 54.42C43.9733 54.7667 44.6667 54.94 45.44 54.94C46.1867 54.94 46.8667 54.76 47.48 54.4C48.1067 54.04 48.6 53.5267 48.96 52.86C49.32 52.1933 49.5 51.42 49.5 50.54ZM55.4961 41.2V56H54.0961V41.2H55.4961ZM60.0664 41.2V56H58.6664V41.2H60.0664Z" fill="black"/>
<path d="M36.424 35.536V58H30.952V44.528L25.928 58H21.512L16.456 44.496V58H10.984V35.536H17.448L23.752 51.088L29.992 35.536H36.424Z" fill="#29A867"/>
</svg>
